<svg width="280" height="280" viewBox="0 0 280 280" fill="none" xmlns="http://www.w3.org/2000/svg">
<g clip-path="url(#clip0_2054_190875)">
<path d="M127.616 46.9124L135.627 51.2134L136.446 115.341L128.474 126.675L128.477 110.609L127.616 46.9124Z" stroke="#BBBBBB" stroke-width="0.852948" stroke-linecap="round" stroke-linejoin="round"/>
<path d="M244.786 89.53L234.985 94.9135L236.085 222.999L244.969 218.157L244.786 89.53Z" stroke="#BBBBBB" stroke-width="0.852948" stroke-linecap="round" stroke-linejoin="round"/>
<path d="M129.408 28.9954L119.608 34.379L234.947 94.8869L244.857 89.4817L129.408 28.9954Z" fill="#5B5B5B" stroke="#BBBBBB" stroke-width="0.852948" stroke-linejoin="round"/>
<path d="M120.209 139.023L128.301 127.69L127.619 46.8896L135.63 51.1906L226.117 99.7628L227.17 199.336L227.266 208.476L208.387 198.817L212.715 210.153L236.097 223.02L236.085 223L234.985 94.9174L119.502 34.4493L120.188 119.135L120.209 139.023Z" fill="#BBBBBB" stroke="#BBBBBB" stroke-width="0.852948" stroke-linecap="round" stroke-linejoin="round"/>
<path d="M204.062 187.478L227.173 199.336L227.27 208.475L208.395 198.813L204.062 187.478Z" fill="#5B5B5B" stroke="#BBBBBB" stroke-width="0.852948" stroke-linejoin="round"/>
<path d="M116.682 198.778L109.911 203.474C110.999 202.512 111.574 201.007 111.069 199.39L103.863 176.382L101.663 169.354V169.339L99.3541 161.976L78.8082 96.3591C77.9997 93.7729 74.9524 92.8264 72.7603 94.0263L80.293 89.3533C82.5318 87.9596 85.5402 88.9657 86.3953 91.388L111.629 168.601L114.031 175.935L116.34 182.993L119.309 192.086C120.141 194.627 119.053 197.392 116.682 198.778Z" fill="url(#paint0_linear_2054_190875)" stroke="#BBBBBB" stroke-width="0.77191" stroke-linecap="round" stroke-linejoin="round"/>
<path d="M110.998 199.652C110.998 199.652 106.605 185.63 103.792 176.645C102.933 173.9 101.592 169.617 101.592 169.617V169.602L99.2835 162.238L78.7376 96.622C77.9292 94.0358 74.8819 93.0892 72.6897 94.2892C72.2077 94.55 71.7646 94.9152 71.3915 95.3922L25.2312 155.113C23.7464 157.036 24.345 159.764 26.4983 160.964L51.3042 174.662L57.1345 177.882L62.4828 180.841L104.919 204.273C106.661 205.235 108.589 204.84 109.832 203.737C110.921 202.775 111.496 201.27 110.991 199.652H110.998Z" fill="url(#paint1_linear_2054_190875)" stroke="#BBBBBB" stroke-width="0.77191" stroke-linecap="round" stroke-linejoin="round"/>
<path d="M218.227 244.029L208.934 251.088C210.415 249.66 211.132 247.492 210.311 245.23L198.604 213.049L195.03 203.219L195.029 203.198L191.279 192.899L157.9 101.121C156.586 97.5036 152.205 96.3438 149.176 98.1753L159.55 91.1026C162.633 88.9936 166.962 90.2403 168.331 93.6225L209.107 201.558L212.987 211.809L216.718 221.675L221.517 234.386C222.861 237.939 221.497 241.923 218.227 244.029Z" fill="url(#paint2_linear_2054_190875)" stroke="#BBBBBB" stroke-width="0.852948" stroke-linecap="round" stroke-linejoin="round"/>
<path d="M210.218 245.603C210.218 245.603 203.081 225.99 198.511 213.422C197.115 209.583 194.936 203.592 194.936 203.592L194.935 203.571L191.185 193.272L157.806 101.494C156.492 97.8769 152.112 96.7171 149.082 98.5486C148.416 98.9471 147.812 99.4911 147.314 100.189L85.7631 187.59C83.7834 190.404 84.8088 194.234 87.9387 195.807L123.987 213.743L132.459 217.959L140.232 221.834L201.901 252.515C204.432 253.774 207.139 253.099 208.83 251.461C210.31 250.033 211.028 247.865 210.207 245.603L210.218 245.603Z" fill="url(#paint3_linear_2054_190875)" stroke="#BBBBBB" stroke-width="0.852948" stroke-linecap="round" stroke-linejoin="round"/>
<path d="M54.9609 81.1099L54.9009 81.1399C54.9009 81.1399 54.9109 81.1299 54.9209 81.1199C54.9309 81.1199 54.9409 81.1099 54.9609 81.1099Z" fill="url(#paint4_linear_2054_190875)" stroke="#BBBBBB" stroke-width="0.852948" stroke-linecap="round" stroke-linejoin="round"/>
<path d="M63.7571 73.2819V73.3005C63.7571 73.403 63.7474 73.5054 63.7474 73.5986V73.6265C63.7474 73.6265 63.7377 73.6824 63.7377 73.7197C63.7377 73.7756 63.728 73.8408 63.728 73.8966C63.728 73.9153 63.7183 73.9246 63.7183 73.9432C63.7183 73.9898 63.7086 74.027 63.7086 74.0736C63.6988 74.1109 63.6988 74.1481 63.6988 74.1947C63.6891 74.2133 63.6891 74.2413 63.6794 74.2599C63.6794 74.3065 63.6697 74.353 63.66 74.3996C63.66 74.4275 63.6503 74.4555 63.6503 74.4834C63.6406 74.5114 63.6406 74.5393 63.6308 74.5673C63.6308 74.6138 63.6114 74.6604 63.6017 74.707C63.592 74.7349 63.592 74.7629 63.5823 74.7908C63.5823 74.8094 63.5725 74.8374 63.5628 74.856C63.5531 74.9119 63.5337 74.9771 63.524 75.033C63.5143 75.0516 63.5045 75.0795 63.4948 75.1075C63.4948 75.1261 63.4851 75.1447 63.4851 75.1541C63.456 75.2286 63.4365 75.2938 63.4171 75.359C63.4074 75.3776 63.3977 75.4055 63.388 75.4335C63.388 75.4428 63.388 75.4521 63.388 75.4614C63.3394 75.5639 63.2908 75.6756 63.2422 75.7688V75.7874C63.2034 75.8526 63.1645 75.9271 63.1257 76.0016C63.0868 76.0762 63.0382 76.1414 62.9994 76.2066C62.9897 76.2066 62.9897 76.2159 62.9897 76.2159C62.9217 76.309 62.8536 76.4022 62.7759 76.4953C62.7662 76.5139 62.7468 76.5326 62.7273 76.5605C62.6593 76.6443 62.5816 76.7188 62.5039 76.7933C62.4942 76.7933 62.4942 76.8027 62.4845 76.812C62.4068 76.8865 62.3193 76.961 62.2222 77.0262C62.2027 77.0355 62.1833 77.0541 62.1639 77.0728C62.0667 77.138 61.9696 77.1939 61.8724 77.2497L54.9748 81.0965C55.0428 81.0499 55.1108 81.0034 55.1788 80.9475C55.4994 80.7239 55.7812 80.4352 56.0143 80.0906C56.0823 79.9974 56.1406 79.8857 56.1989 79.7739C56.228 79.7366 56.2475 79.6901 56.2669 79.6528C56.296 79.5969 56.3252 79.5317 56.3446 79.4665C56.4223 79.2896 56.4903 79.1033 56.5486 78.9077C56.5681 78.8518 56.5778 78.7959 56.5972 78.74C56.6069 78.7028 56.6069 78.6655 56.6166 78.6282C56.6264 78.6096 56.6361 78.591 56.6361 78.563C56.6555 78.4699 56.6749 78.3768 56.6944 78.2743C56.7138 78.1719 56.7235 78.0694 56.7332 77.9576C56.7429 77.9111 56.7429 77.8645 56.7526 77.8272V77.7248C56.7721 77.5478 56.7818 77.3615 56.7818 77.1659C56.7818 77.0541 56.7818 76.9424 56.7818 76.8306C56.7818 76.7468 56.7818 76.6536 56.7721 76.5605C56.7721 76.5326 56.7624 76.5139 56.7624 76.486C56.7624 76.4487 56.7624 76.4022 56.7526 76.3649C56.7332 76.132 56.7041 75.8992 56.6652 75.6663C56.6652 75.657 56.6555 75.6384 56.6555 75.6198C56.6361 75.5173 56.6166 75.4149 56.5972 75.3124C56.5875 75.2751 56.5778 75.2286 56.5778 75.1913C56.5583 75.1075 56.5389 75.033 56.5195 74.9491C56.5098 74.9026 56.5001 74.8653 56.4903 74.8187C56.4709 74.7442 56.4515 74.6604 56.4321 74.5859C56.4126 74.5393 56.4029 74.5021 56.3932 74.4555C56.3641 74.3717 56.3446 74.2878 56.3155 74.204V74.1854H56.3058C56.1309 73.5986 55.9074 73.0118 55.6354 72.4436C55.5869 72.3412 55.5383 72.2387 55.4897 72.1363C55.4508 72.0711 55.4217 72.0059 55.3926 71.95C55.1983 71.5774 54.9942 71.2142 54.7708 70.8602C54.6445 70.6646 54.5182 70.4783 54.3919 70.2921C54.0907 69.8543 53.7702 69.4351 53.4204 69.0439C53.333 68.9415 53.2456 68.8483 53.1581 68.7459C53.129 68.718 53.1095 68.69 53.0804 68.6714C52.9347 68.4944 52.7695 68.3361 52.5946 68.1777C52.4878 68.066 52.3809 67.9635 52.2643 67.861C52.2546 67.8517 52.2352 67.8331 52.2255 67.8331C52.1672 67.7772 52.1186 67.7307 52.0506 67.6748C51.9437 67.5816 51.8272 67.4885 51.7203 67.414C51.6814 67.3767 51.6329 67.3395 51.594 67.3115C51.4969 67.2277 51.39 67.1532 51.2928 67.088C51.2248 67.0321 51.1568 66.9855 51.0888 66.9483C51.05 66.9203 51.0208 66.9017 50.982 66.8737C50.9237 66.8272 50.8557 66.7899 50.7877 66.7527C50.6419 66.6502 50.4962 66.5664 50.3505 66.4825C50.1173 66.3521 49.8745 66.2404 49.651 66.1472C49.5539 66.1007 49.4567 66.0634 49.3596 66.0262C49.2624 65.9982 49.1847 65.961 49.0973 65.9237C48.6892 65.7933 48.2909 65.7002 47.912 65.6629C47.8635 65.6629 47.8246 65.6536 47.776 65.6536C47.7275 65.6443 47.6886 65.6443 47.64 65.6443H47.3583C47.2903 65.635 47.2223 65.6443 47.1543 65.6536C47.1154 65.6536 47.0863 65.6536 47.0474 65.6629C46.9503 65.6629 46.8628 65.6815 46.7754 65.7002C46.6394 65.7188 46.5034 65.756 46.3868 65.7933C46.3382 65.8026 46.2896 65.8212 46.2411 65.8399C46.0662 65.8958 45.901 65.9703 45.7456 66.0541L52.7307 62.1794C52.8084 62.1328 52.8861 62.0956 52.9638 62.0583C52.993 62.0397 53.0221 62.0304 53.0513 62.021C53.1095 62.0024 53.1678 61.9745 53.2261 61.9559C53.2358 61.9559 53.2358 61.9465 53.2455 61.9465C53.2844 61.9279 53.3233 61.9186 53.3621 61.9093C53.3913 61.9 53.4204 61.8907 53.4496 61.8813C53.5078 61.8627 53.5759 61.8534 53.6341 61.8441C53.6536 61.8348 53.673 61.8348 53.6924 61.8255H53.7313C53.8284 61.8068 53.9256 61.7882 54.0325 61.7789C54.0422 61.7789 54.0616 61.7789 54.0713 61.7696H54.1393C54.2073 61.7696 54.2753 61.7603 54.3433 61.7603H54.6251C54.6251 61.7603 54.6834 61.7696 54.7125 61.7696H54.7514C54.7999 61.7789 54.8485 61.7789 54.8971 61.7882C54.9262 61.7882 54.9651 61.7882 55.004 61.7882C55.0137 61.7882 55.0331 61.7882 55.0428 61.7975C55.0914 61.7975 55.1303 61.8068 55.1788 61.8161C55.2177 61.8161 55.2468 61.8255 55.2857 61.8348C55.3051 61.8348 55.3246 61.8441 55.344 61.8441C55.3828 61.8534 55.4217 61.8627 55.4606 61.872C55.4897 61.872 55.5188 61.8813 55.548 61.8907C55.5771 61.8907 55.6063 61.9 55.6354 61.9093L55.752 61.9372C55.752 61.9372 55.7909 61.9559 55.82 61.9559C55.8589 61.9745 55.9075 61.9838 55.9463 62.0024C55.9755 62.0117 56.0143 62.0211 56.0435 62.0304C56.0532 62.0304 56.0629 62.0397 56.0726 62.0397C56.16 62.0676 56.2475 62.0956 56.3349 62.1328C56.4223 62.1701 56.5098 62.198 56.5972 62.2353C56.5972 62.2446 56.6166 62.2539 56.6361 62.2539C56.6652 62.2725 56.6944 62.2819 56.7235 62.3005C56.7721 62.3191 56.8109 62.3377 56.8595 62.3564C56.8887 62.3657 56.9081 62.3843 56.9372 62.3936C56.9761 62.4122 57.0052 62.4309 57.0441 62.4495C57.0732 62.4588 57.0927 62.4774 57.1218 62.4868C57.1898 62.524 57.2578 62.5613 57.3258 62.5985C57.3453 62.6078 57.3744 62.6172 57.3938 62.6358C57.4716 62.6824 57.559 62.7289 57.6464 62.7755C57.6464 62.7848 57.6561 62.7848 57.6659 62.7941C57.7533 62.85 57.8504 62.9059 57.9379 62.9711C57.9476 62.9711 57.9573 62.9804 57.967 62.9804C57.9962 63.0084 58.035 63.0363 58.0739 63.0549C58.1225 63.0922 58.171 63.1201 58.2196 63.1574C58.239 63.1667 58.2488 63.1853 58.2682 63.1946C58.307 63.2226 58.3556 63.2505 58.3945 63.2878C58.4333 63.3064 58.4625 63.3344 58.5013 63.3623C58.5305 63.3809 58.5499 63.3995 58.5693 63.4182C58.6179 63.4554 58.6568 63.4834 58.7054 63.5206C58.7345 63.5393 58.7636 63.5672 58.7928 63.5858C58.8219 63.6138 58.8414 63.6324 58.8705 63.6603C58.9191 63.6976 58.9579 63.7349 59.0065 63.7721C59.0259 63.7907 59.0551 63.8094 59.0745 63.828C59.1134 63.8559 59.1425 63.8839 59.1717 63.9118C59.2105 63.9491 59.2591 63.9863 59.298 64.0236C59.3271 64.0422 59.3465 64.0609 59.366 64.0795C59.3951 64.1167 59.434 64.1447 59.4728 64.1819C59.4923 64.2006 59.502 64.2099 59.5214 64.2285C59.5408 64.2471 59.57 64.2751 59.5894 64.2937L59.638 64.3403C59.638 64.3403 59.7157 64.4241 59.7546 64.4614L59.8711 64.5731C59.8711 64.5731 59.8906 64.5918 59.9003 64.6011C59.9586 64.657 60.0072 64.7222 60.0655 64.7781C60.0849 64.806 60.114 64.8339 60.1432 64.8619C60.1432 64.8619 60.1432 64.8712 60.1529 64.8712C60.2403 64.9643 60.318 65.0575 60.4055 65.1506C60.4152 65.1692 60.4346 65.1879 60.4443 65.2065C60.5123 65.281 60.5803 65.3648 60.6483 65.4487C60.6581 65.4487 60.6581 65.4487 60.6678 65.4487C60.8912 65.7281 61.105 66.0075 61.309 66.2963C61.3187 66.3149 61.3381 66.3335 61.3478 66.3521C61.3575 66.3708 61.3673 66.3801 61.3673 66.3894C61.5227 66.6036 61.6587 66.8179 61.7947 67.0414C61.8044 67.06 61.8141 67.0693 61.8239 67.088C61.8336 67.0973 61.8433 67.1159 61.853 67.1252C61.9501 67.2836 62.0376 67.4419 62.1347 67.6003C62.1347 67.6096 62.1445 67.6189 62.1445 67.6282C62.1736 67.6841 62.2027 67.7306 62.2319 67.7772C62.261 67.8424 62.2902 67.9076 62.329 67.9635C62.329 67.9728 62.3388 67.9914 62.3485 68.0008C62.3873 68.0753 62.4262 68.1591 62.465 68.2336C62.4748 68.2616 62.4942 68.2895 62.5039 68.3174H62.5136C62.5622 68.4199 62.6108 68.5224 62.6496 68.6248C62.6593 68.6341 62.6593 68.6434 62.6691 68.6621C62.6691 68.69 62.6982 68.718 62.7079 68.7552C62.7371 68.8111 62.7565 68.867 62.7856 68.9229C62.7954 68.9508 62.8051 68.9787 62.8245 69.0067C62.8342 69.0439 62.8536 69.0812 62.8731 69.1278C62.8828 69.1557 62.9022 69.193 62.9119 69.2209C62.9314 69.2675 62.9508 69.3234 62.9702 69.3699C62.9897 69.4072 62.9994 69.4445 63.0091 69.4817C63.0188 69.491 63.0285 69.5097 63.0285 69.5283C63.0674 69.6214 63.1062 69.7146 63.1354 69.8077C63.1354 69.817 63.1451 69.8263 63.1451 69.8357C63.184 69.9474 63.2228 70.0499 63.252 70.1617C63.2617 70.171 63.2617 70.1803 63.2617 70.1896C63.2617 70.1989 63.2617 70.1989 63.2714 70.2082C63.2811 70.2455 63.2908 70.2827 63.3005 70.3107C63.32 70.3666 63.3394 70.4224 63.3491 70.4876C63.3588 70.5063 63.3685 70.5342 63.3685 70.5528C63.388 70.5994 63.3977 70.646 63.4074 70.6926C63.4171 70.7298 63.4365 70.7764 63.4463 70.8136C63.456 70.8509 63.456 70.8882 63.4657 70.9161C63.4754 70.9627 63.4948 71.0092 63.5045 71.0558C63.5045 71.0838 63.5143 71.1117 63.524 71.1396C63.5337 71.1862 63.5434 71.2421 63.5531 71.2887C63.5628 71.3352 63.5725 71.3725 63.5823 71.4098C63.5823 71.4284 63.5823 71.447 63.5823 71.4563C63.6017 71.5495 63.6114 71.6333 63.6308 71.7264C63.6308 71.7264 63.6308 71.7544 63.6308 71.7637C63.6406 71.8755 63.66 71.9779 63.6697 72.0804C63.6794 72.099 63.6794 72.1083 63.6794 72.1176C63.6794 72.1456 63.6891 72.1828 63.6891 72.2201C63.6988 72.276 63.6988 72.3319 63.7086 72.3877C63.7086 72.4157 63.7086 72.4436 63.7183 72.4623C63.7183 72.5088 63.7183 72.5461 63.728 72.5833C63.728 72.6206 63.728 72.6579 63.7377 72.6858V72.8255C63.7377 72.8255 63.7474 72.9 63.7474 72.9373V72.9839C63.7474 73.077 63.7571 73.1701 63.7571 73.2633V73.2819Z" fill="url(#paint5_linear_2054_190875)" stroke="#BBBBBB" stroke-width="0.852948" stroke-linecap="round" stroke-linejoin="round"/>
<path d="M56.7832 77.1632C56.7832 77.3588 56.7832 77.5451 56.754 77.722C56.754 77.8059 56.7443 77.8804 56.7346 77.9549C56.7249 78.0667 56.7151 78.1691 56.6957 78.2716C56.6763 78.374 56.6569 78.4672 56.6374 78.5603C56.6374 78.5883 56.6277 78.6069 56.618 78.6255C56.5986 78.7187 56.5791 78.8118 56.55 78.905C56.4917 79.1006 56.4237 79.2868 56.346 79.4638C56.3071 79.5756 56.2585 79.678 56.2003 79.7712C56.142 79.8829 56.074 79.9854 56.0157 80.0879C55.7825 80.4325 55.5008 80.7212 55.1802 80.9448C55.1122 81.0006 55.0442 81.0472 54.9762 81.0938H54.9665L54.9567 81.1031C54.9373 81.1031 54.9276 81.1124 54.9179 81.1124C54.9179 81.1124 54.9114 81.1186 54.8984 81.131C53.7229 81.783 52.0908 81.6899 50.2936 80.7026C49.4775 80.2555 48.7003 79.6594 47.9911 78.9515C47.9911 78.9515 47.9879 78.9484 47.9814 78.9422C46.3007 77.3029 44.9601 75.0955 44.2994 72.888C44.008 71.9193 43.8525 70.9413 43.8525 70.0192C43.8623 68.0726 44.5812 66.7034 45.7372 66.0514C45.8927 65.9675 46.0578 65.893 46.2327 65.8372C46.2813 65.8185 46.3299 65.7999 46.3784 65.7906C46.495 65.7533 46.631 65.7161 46.767 65.6974C46.8545 65.6788 46.9516 65.6695 47.0391 65.6602C47.0779 65.6509 47.107 65.6509 47.1459 65.6509C47.2139 65.6415 47.2819 65.6322 47.3499 65.6416H47.6317C47.6802 65.6416 47.7191 65.6415 47.7677 65.6509C47.8162 65.6509 47.8551 65.6602 47.9037 65.6602C48.2826 65.6974 48.6809 65.7906 49.0889 65.921C49.1763 65.9582 49.2541 65.9955 49.3512 66.0234C49.4484 66.0607 49.5455 66.0979 49.6427 66.1445C49.8661 66.2377 50.109 66.3494 50.3421 66.4798C50.4879 66.5637 50.6336 66.6475 50.7793 66.7499C50.8473 66.7872 50.9153 66.8245 50.9736 66.871C51.0125 66.899 51.0416 66.9176 51.0805 66.9455C51.1485 66.9828 51.2165 67.0294 51.2845 67.0852C51.3816 67.1504 51.4885 67.225 51.5857 67.3088C51.6245 67.3367 51.6731 67.374 51.7119 67.4112C51.8188 67.4858 51.9354 67.5789 52.0422 67.672C52.1103 67.7279 52.1588 67.7745 52.2171 67.8304C52.2171 67.8304 52.2463 67.849 52.256 67.8583C52.3726 67.9608 52.4794 68.0632 52.5863 68.175C52.7612 68.3333 52.9263 68.4917 53.072 68.6687C53.1886 68.7897 53.3052 68.9108 53.4121 69.0412C53.7618 69.4324 54.0824 69.8516 54.3836 70.2893C54.5099 70.4756 54.6361 70.6619 54.7624 70.8575C54.9859 71.2114 55.1899 71.5747 55.3842 71.9473C55.4133 72.0031 55.4425 72.0683 55.4813 72.1335C55.5299 72.236 55.5785 72.3384 55.6271 72.4409C55.8991 73.0091 56.1225 73.5959 56.2974 74.1827H56.3071V74.2013C56.3751 74.4062 56.4334 74.6111 56.482 74.816C56.4917 74.8626 56.5014 74.8999 56.5111 74.9464C56.5403 75.0675 56.5694 75.1886 56.5888 75.3097C56.6083 75.4121 56.6277 75.5146 56.6471 75.617C56.6471 75.6357 56.6569 75.6543 56.6569 75.6636C56.6957 75.8965 56.7249 76.1293 56.7443 76.3622C56.754 76.3994 56.754 76.446 56.754 76.4833C56.754 76.5112 56.7637 76.5298 56.7637 76.5578C56.7734 76.6509 56.7734 76.7441 56.7734 76.8279C56.7734 76.9397 56.7734 77.0514 56.7734 77.1632H56.7832Z" fill="#858585" stroke="#B7B7B7" stroke-width="0.852948" stroke-linecap="round" stroke-linejoin="round"/>
</g>
<defs>
<linearGradient id="paint0_linear_2054_190875" x1="116.285" y1="131.977" x2="78.0649" y2="159.92" gradientUnits="userSpaceOnUse">
<stop stop-color="#1B1C1E" stop-opacity="0"/>
<stop offset="0.92" stop-color="#C8C8C8" stop-opacity="0.3"/>
</linearGradient>
<linearGradient id="paint1_linear_2054_190875" x1="108.736" y1="137.286" x2="43.5606" y2="184.943" gradientUnits="userSpaceOnUse">
<stop stop-color="#BBBBBB"/>
<stop offset="0.43" stop-color="#C1C1C1"/>
<stop offset="1" stop-color="#B5B5B5" stop-opacity="0"/>
</linearGradient>
<linearGradient id="paint2_linear_2054_190875" x1="213.33" y1="149.37" x2="161.011" y2="191.305" gradientUnits="userSpaceOnUse">
<stop stop-color="#1B1C1E" stop-opacity="0"/>
<stop offset="0.92" stop-color="#C8C8C8" stop-opacity="0.3"/>
</linearGradient>
<linearGradient id="paint3_linear_2054_190875" x1="202.964" y1="157.34" x2="113.747" y2="228.863" gradientUnits="userSpaceOnUse">
<stop stop-color="#BBBBBB"/>
<stop offset="0.43" stop-color="#C1C1C1"/>
<stop offset="1" stop-color="#B5B5B5" stop-opacity="0"/>
</linearGradient>
<linearGradient id="paint4_linear_2054_190875" x1="54.9009" y1="81.1299" x2="54.9609" y2="81.1299" gradientUnits="userSpaceOnUse">
<stop offset="0.21" stop-color="#B9B9B9"/>
<stop offset="0.71" stop-color="#747474"/>
<stop offset="1" stop-color="#252525"/>
</linearGradient>
<linearGradient id="paint5_linear_2054_190875" x1="45.7262" y1="71.4284" x2="63.7571" y2="71.4284" gradientUnits="userSpaceOnUse">
<stop offset="0.4" stop-color="#C0C0C0"/>
<stop offset="1" stop-color="#5F5F5F"/>
</linearGradient>
<clipPath id="clip0_2054_190875">
<rect width="280" height="280" fill="white"/>
</clipPath>
</defs>
</svg>
